<svg width="25" height="24" viewBox="0 0 25 24" fill="none" xmlns="http://www.w3.org/2000/svg">
<path d="M2.5 12L1.91435 11.5315L1.53953 12L1.91435 12.4685L2.5 12ZM11.5 12.75C11.9142 12.75 12.25 12.4142 12.25 12C12.25 11.5858 11.9142 11.25 11.5 11.25V12.75ZM5.91435 6.53148L1.91435 11.5315L3.08565 12.4685L7.08565 7.46852L5.91435 6.53148ZM1.91435 12.4685L5.91435 17.4685L7.08565 16.5315L3.08565 11.5315L1.91435 12.4685ZM2.5 12.75H11.5V11.25H2.5V12.75Z" fill="#757575"/>
<path d="M10.5 8.13193V7.38851C10.5 5.77017 10.5 4.961 10.974 4.4015C11.4479 3.84201 12.2461 3.70899 13.8424 3.44293L15.5136 3.1644C18.7567 2.62388 20.3782 2.35363 21.4391 3.25232C22.5 4.15102 22.5 5.79493 22.5 9.08276V14.9172C22.5 18.2051 22.5 19.849 21.4391 20.7477C20.3782 21.6464 18.7567 21.3761 15.5136 20.8356L13.8424 20.5571C12.2461 20.291 11.4479 20.158 10.974 19.5985C10.5 19.039 10.5 18.2298 10.5 16.6115V16.066" stroke="#757575" stroke-width="1.5"/>
</svg>
