<svg width="24" height="24" viewBox="0 0 24 24" fill="none" xmlns="http://www.w3.org/2000/svg">
<path d="M7.18497 19.605L7.58677 18.9717C7.39637 18.8509 7.16172 18.8222 6.9478 18.8935L7.18497 19.605ZM3 21L2.28849 20.7628C2.19865 21.0323 2.2688 21.3295 2.46967 21.5303C2.67054 21.7312 2.96767 21.8013 3.23717 21.7115L3 21ZM4.39499 16.815L5.1065 17.0522C5.17781 16.8383 5.14908 16.6036 5.02828 16.4132L4.39499 16.815ZM12 21.75C17.3848 21.75 21.75 17.3848 21.75 12H20.25C20.25 16.5563 16.5563 20.25 12 20.25V21.75ZM6.78317 20.2383C8.29215 21.1957 10.0825 21.75 12 21.75V20.25C10.3754 20.25 8.86257 19.7812 7.58677 18.9717L6.78317 20.2383ZM6.9478 18.8935L2.76283 20.2885L3.23717 21.7115L7.42214 20.3165L6.9478 18.8935ZM3.71151 21.2372L5.1065 17.0522L3.68348 16.5779L2.28849 20.7628L3.71151 21.2372ZM2.25 12C2.25 13.9175 2.8043 15.7078 3.7617 17.2168L5.02828 16.4132C4.21883 15.1374 3.75 13.6246 3.75 12H2.25ZM12 2.25C6.61522 2.25 2.25 6.61522 2.25 12H3.75C3.75 7.44365 7.44365 3.75 12 3.75V2.25ZM21.75 12C21.75 6.61522 17.3848 2.25 12 2.25V3.75C16.5563 3.75 20.25 7.44365 20.25 12H21.75Z" fill="#14181F"/>
<path d="M13.5 12C13.5 12.8284 12.8284 13.5 12 13.5C11.1716 13.5 10.5 12.8284 10.5 12C10.5 11.1716 11.1716 10.5 12 10.5C12.8284 10.5 13.5 11.1716 13.5 12Z" fill="#14181F"/>
<path d="M18 12C18 12.8284 17.3284 13.5 16.5 13.5C15.6716 13.5 15 12.8284 15 12C15 11.1716 15.6716 10.5 16.5 10.5C17.3284 10.5 18 11.1716 18 12Z" fill="#14181F"/>
<path d="M9 12C9 12.8284 8.32843 13.5 7.5 13.5C6.67157 13.5 6 12.8284 6 12C6 11.1716 6.67157 10.5 7.5 10.5C8.32843 10.5 9 11.1716 9 12Z" fill="#14181F"/>
</svg>
